<?xml version="1.0" encoding="UTF-8"?>
<svg xmlns="http://www.w3.org/2000/svg" width="640" height="430" viewBox="0 0 640 430" role="img" font-family="Helvetica, Arial, sans-serif" font-size="12">
<title>Partial dependence of response on dose (mg) (ICE)</title>
<rect class="background" width="100%" height="100%" fill="#ffffff"/>
<line class="legend-ice" x1="45.84" y1="19.2" x2="63.84" y2="19.2" stroke="#7f9fc6" stroke-width="1"/>
<text class="legend-label" x="69.84" y="23.4" text-anchor="start" fill="#222222">ICE (12 of 12 shown)</text>
<line class="legend-average" x1="231.84" y1="19.2" x2="249.84" y2="19.2" stroke="#c0392b" stroke-width="2.5"/>
<text class="legend-label" x="255.84" y="23.4" text-anchor="start" fill="#222222">average of 12 curves</text>
<g class="ice-curves" fill="none" stroke="#7f9fc6" stroke-width="1" stroke-opacity="0.45">
<polyline class="ice" points="45.84,206.49 117.86,204.39 189.88,208.59 261.9,219.08 333.92,235.87 405.94,258.95 477.96,288.33 549.98,324.01 622,365.98"/>
<polyline class="ice" points="45.84,185.5 117.86,170.29 189.88,161.37 261.9,158.74 333.92,162.42 405.94,172.38 477.96,188.65 549.98,211.21 622,240.07"/>
<polyline class="ice" points="45.84,164.51 117.86,136.18 189.88,114.15 261.9,98.41 333.92,88.96 405.94,85.82 477.96,88.96 549.98,98.41 622,114.15"/>
<polyline class="ice" points="45.84,143.53 117.86,133.56 189.88,129.89 261.9,132.51 333.92,141.43 405.94,156.64 477.96,178.16 549.98,205.96 622,240.07"/>
<polyline class="ice" points="45.84,206.49 117.86,183.4 189.88,166.61 261.9,156.12 333.92,151.92 405.94,154.02 477.96,162.42 549.98,177.11 622,198.09"/>
<polyline class="ice" points="45.84,185.5 117.86,180.78 189.88,182.35 261.9,190.22 333.92,204.39 405.94,224.85 477.96,251.61 549.98,284.66 622,324.01"/>
<polyline class="ice" points="45.84,164.51 117.86,146.68 189.88,135.13 261.9,129.89 333.92,130.94 405.94,138.28 477.96,151.92 549.98,171.86 622,198.09"/>
<polyline class="ice" points="45.84,143.53 117.86,112.57 189.88,87.91 261.9,69.55 333.92,57.48 405.94,51.71 477.96,52.24 549.98,59.06 622,72.18"/>
<polyline class="ice" points="45.84,206.49 117.86,193.9 189.88,187.6 261.9,187.6 333.92,193.9 405.94,206.49 477.96,225.37 549.98,250.56 622,282.04"/>
<polyline class="ice" points="45.84,185.5 117.86,159.79 189.88,140.38 261.9,127.26 333.92,120.44 405.94,119.92 477.96,125.69 549.98,137.76 622,156.12"/>
<polyline class="ice" points="45.84,164.51 117.86,157.17 189.88,156.12 261.9,161.37 333.92,172.91 405.94,190.75 477.96,214.88 549.98,245.31 622,282.04"/>
<polyline class="ice" points="45.84,143.53 117.86,123.07 189.88,108.9 261.9,101.03 333.92,99.46 405.94,104.18 477.96,115.2 549.98,132.51 622,156.12"/>
</g>
<polyline class="average" fill="none" stroke="#c0392b" stroke-width="2.5" points="45.84,175.01 117.86,158.48 189.88,148.25 261.9,144.32 333.92,146.68 405.94,155.33 477.96,170.29 549.98,191.53 622,219.08"/>
<g class="rug" stroke="#222222" stroke-opacity="0.5">
<line x1="45.84" y1="381.7" x2="45.84" y2="374.5"/>
<line x1="549.98" y1="381.7" x2="549.98" y2="374.5"/>
<line x1="405.94" y1="381.7" x2="405.94" y2="374.5"/>
<line x1="261.9" y1="381.7" x2="261.9" y2="374.5"/>
<line x1="117.86" y1="381.7" x2="117.86" y2="374.5"/>
<line x1="622" y1="381.7" x2="622" y2="374.5"/>
<line x1="477.96" y1="381.7" x2="477.96" y2="374.5"/>
<line x1="333.92" y1="381.7" x2="333.92" y2="374.5"/>
<line x1="189.88" y1="381.7" x2="189.88" y2="374.5"/>
<line x1="45.84" y1="381.7" x2="45.84" y2="374.5"/>
<line x1="549.98" y1="381.7" x2="549.98" y2="374.5"/>
<line x1="405.94" y1="381.7" x2="405.94" y2="374.5"/>
</g>
<line class="axis" x1="45.84" y1="36" x2="45.84" y2="381.7" stroke="#999999" stroke-width="1"/>
<line class="tick" x1="41.64" y1="374.38" x2="45.84" y2="374.38" stroke="#999999" stroke-width="1"/>
<text class="tick-label" x="39.84" y="377.98" text-anchor="end" fill="#666666" font-size="10.2">-4</text>
<line class="tick" x1="41.64" y1="290.43" x2="45.84" y2="290.43" stroke="#999999" stroke-width="1"/>
<text class="tick-label" x="39.84" y="294.03" text-anchor="end" fill="#666666" font-size="10.2">-2</text>
<line class="tick" x1="41.64" y1="206.49" x2="45.84" y2="206.49" stroke="#999999" stroke-width="1"/>
<text class="tick-label" x="39.84" y="210.09" text-anchor="end" fill="#666666" font-size="10.2">0</text>
<line class="tick" x1="41.64" y1="122.54" x2="45.84" y2="122.54" stroke="#999999" stroke-width="1"/>
<text class="tick-label" x="39.84" y="126.14" text-anchor="end" fill="#666666" font-size="10.2">2</text>
<line class="tick" x1="41.64" y1="38.6" x2="45.84" y2="38.6" stroke="#999999" stroke-width="1"/>
<text class="tick-label" x="39.84" y="42.2" text-anchor="end" fill="#666666" font-size="10.2">4</text>
<text class="axis-label" x="19.2" y="208.85" text-anchor="middle" fill="#666666" transform="rotate(-90 19.2 208.85)">response</text>
<line class="axis" x1="45.84" y1="381.7" x2="622" y2="381.7" stroke="#999999" stroke-width="1"/>
<line class="tick" x1="45.84" y1="381.7" x2="45.84" y2="385.9" stroke="#999999" stroke-width="1"/>
<text class="tick-label" x="45.84" y="397.9" text-anchor="middle" fill="#666666" font-size="10.2">0</text>
<line class="tick" x1="189.88" y1="381.7" x2="189.88" y2="385.9" stroke="#999999" stroke-width="1"/>
<text class="tick-label" x="189.88" y="397.9" text-anchor="middle" fill="#666666" font-size="10.2">0.5</text>
<line class="tick" x1="333.92" y1="381.7" x2="333.92" y2="385.9" stroke="#999999" stroke-width="1"/>
<text class="tick-label" x="333.92" y="397.9" text-anchor="middle" fill="#666666" font-size="10.2">1</text>
<line class="tick" x1="477.96" y1="381.7" x2="477.96" y2="385.9" stroke="#999999" stroke-width="1"/>
<text class="tick-label" x="477.96" y="397.9" text-anchor="middle" fill="#666666" font-size="10.2">1.5</text>
<line class="tick" x1="622" y1="381.7" x2="622" y2="385.9" stroke="#999999" stroke-width="1"/>
<text class="tick-label" x="622" y="397.9" text-anchor="middle" fill="#666666" font-size="10.2">2</text>
<text class="axis-label" x="333.92" y="412.9" text-anchor="middle" fill="#666666">dose (mg)</text>
</svg>
